<?xml version="1.0" encoding="utf-8"?>
<!-- Generator: Adobe Illustrator 22.1.0, SVG Export Plug-In . SVG Version: 6.00 Build 0)  -->
<svg version="1.1" id="Camada_1" xmlns="http://www.w3.org/2000/svg" xmlns:xlink="http://www.w3.org/1999/xlink" x="0px" y="0px"
	 viewBox="0 0 1366 768" style="enable-background:new 0 0 1366 768;" xml:space="preserve">
<style type="text/css">
	.st0{fill:#019B4B;}
	.st1{fill:#029B4B;}
	.st2{fill:#039B4C;}
	.st3{fill:#040404;}
	.st4{fill:#050505;}
	.st5{fill:#070707;}
	.st6{fill:#080808;}
	.st7{fill:#0F0F0F;}
	.st8{fill:#101010;}
	.st9{fill:#010101;}
	.st10{fill:#0A0A0A;}
</style>
<g>
	<g>
		<path class="st0" d="M703,421.1c-1.9,0-3.3,0-4.8,0c-34.2,0-68.3,0-102.5,0c-0.8,0-1.7,0-2.5,0c-6.7-0.3-10.6-5.4-8.8-11.9
			c2-6.8,4.3-13.6,6.5-20.4c4.6-14.5,9.5-29,13.8-43.6c2.4-8,11-14.4,19.5-14.2c14.8,0.4,29.7,0.2,44.5,0.1c3,0,5.6,0.5,6.9,4
			c6-18.7,11.8-36.8,17.6-55c18.4,0,36.4,0,54.8,0C733,327.1,718.1,373.8,703,421.1z M668.4,337.8c-4,0-6.8,2-8.4,6.5
			c-1.9,5.5-3.6,11-5.3,16.6c-5,15.6-9.9,31.3-15,46.9c-0.7,2.3-0.8,4.3,1,5.9c1.8,1.5,3.9,1.3,6.1,0.4c3.7-1.5,5.1-4.4,6.2-7.9
			c5.5-17.4,11.1-34.7,16.7-52.1c1.1-3.5,2.3-6.9,3.2-10.5C673.8,339.8,672.2,337.8,668.4,337.8z"/>
		<path class="st1" d="M454.8,420.9c-18.1-29.6-36.2-59.1-54.8-89.6c-9.7,30.3-19.1,59.8-28.6,89.5c-2.1,0-4.1,0-6.5,0
			c15-47,29.9-93.7,44.9-140.6c15.1,0,30,0,45.5,0c17.9,29.2,36,58.7,54.7,89.3c9.9-30.4,19.1-59.9,28.6-89.4c2.1,0,4,0,6.5,0
			c-15,47.1-30,94-44.9,140.9C485.1,420.9,470.3,420.9,454.8,420.9z"/>
		<path class="st1" d="M851.6,379.2c-22.6,0-44.8,0-67.3,0c-0.7,2-1.6,3.9-2.2,5.9c-1.9,5.8-3.8,11.7-5.5,17.6
			c-1.7,5.9,0.9,10.2,6.8,11.6c1.8,0.4,3.6,0.5,5.4,0.5c15.3,0,30.7,0,46,0c1.6,0,3.2,0,5.3,0c-0.7,2.2-1.2,3.9-1.8,5.9
			c-1.2,0.1-2.3,0.3-3.4,0.3c-35.2,0-70.3,0-105.5,0c-6.4,0-10.4-3.5-10.3-9c0.1-2.1,0.8-4.2,1.5-6.3c2.7-8.7,5.5-17.4,8.3-26.1
			c3.6-11.4,7.6-22.6,10.8-34.1c2.6-9.1,11.8-14.8,20.1-14.7c30.5,0.3,61,0.1,91.5,0.1c1.2,0,2.3-0.1,3.5,0c5.4,0.5,8.4,3.8,8.4,9.3
			c0,1.2,0,2.4-0.4,3.5C859.2,355.5,855.5,367.2,851.6,379.2z M798.8,372.8c3-9.4,6-18.5,8.9-27.6c0.3-1.1,0.5-2.3,0.4-3.4
			c-0.1-2.5-1.1-3.6-3.6-3.9c-4-0.5-7.7,1.5-9.1,5.5c-3.3,9.7-6.3,19.4-9.5,29.4C790.4,372.8,794.4,372.8,798.8,372.8z"/>
		<path class="st2" d="M975.3,414.8c-0.6,2.3-1.1,3.9-1.6,5.9c-1.3,0.1-2.5,0.3-3.8,0.3c-34.8,0-69.6,0-104.4,0
			c-1.2,0-2.3,0.1-3.5-0.1c-4.1-0.6-7-3.6-7.1-7.7c-0.1-2.1,0.2-4.3,0.8-6.4c6.4-20.6,13-41.1,19.5-61.6
			c2.9-9.3,11.7-14.4,19.9-14.3c34.1,0.3,68.3,0.1,102.4,0.1c1.5,0,2.9,0,4.8,0c-0.9,2.6-1.6,4.6-2.3,6.7c-2.3,0-4.3,0-6.2,0
			c-15.5,0-31,0-46.5,0c-10.1,0-16.4,4.8-19.4,14.6c-5,16-10.1,31.9-15.2,47.9c-0.5,1.6-1,3.2-1.2,4.8c-0.5,4,1.8,7.8,5.6,8.9
			c2,0.6,4.2,0.8,6.4,0.9c15.5,0.1,31,0,46.5,0C971.6,414.8,973.2,414.8,975.3,414.8z"/>
		<path class="st1" d="M567.9,420.8c-18.5,0-36.6,0-54.8,0c9.6-29.9,19-59.6,28.5-89.4c18.2,0,36.3,0,54.8,0
			C586.8,361.4,577.3,391.1,567.9,420.8z"/>
		<path class="st1" d="M573,318.2c-4.8,0-9.6,0.1-14.5,0c-6.9-0.2-10.6-4.9-8.9-11.6c1.3-5,2.7-9.9,4.5-14.7
			c2.9-7.7,11-12.3,17.3-12.1c9.3,0.3,18.6,0,27.9,0.1c7.4,0.1,11.1,4.5,9.4,11.7c-1.2,5.3-2.8,10.6-5.1,15.5
			c-3.2,7-8.8,11.1-16.9,11.1C582.3,318.2,577.7,318.2,573,318.2z"/>
		<path class="st3" d="M849.1,478.6c3.3,0,6.4,0,9.7,0c0.2,1.3,0.3,2.6,0.5,3.9c7.9-7.1,17.4-7.3,23.6,0.9c2.7-3.1,5.9-5.6,10.1-5.9
			c2.7-0.2,5.7,0.1,8.2,1c4.1,1.6,5.9,5.2,5.9,9.6c0,9.7,0,19.3,0,29.2c-3.2,1.2-6.5,0.1-10.2,0.7c0-3.6,0-6.7,0-9.8
			c0-5.8,0.1-11.7,0-17.5c-0.1-4.5-1.9-6.7-5.5-6.9c-4.1-0.2-8,3-8.2,7c-0.2,2.8,0,5.7,0,8.5c0,6,0,12,0,18.2c-3.3,0-6.4,0-9.9,0
			c-0.1-1.1-0.3-2.3-0.3-3.6c0-6.3,0-12.7,0-19c0-1,0-2,0-3c-0.1-5.5-2-8.1-5.9-8.2c-4.5-0.1-7.8,3.4-7.9,8.3c0,6.2,0,12.3,0,18.5
			c0,2.3,0,4.6,0,7c-3.6,0-6.7,0-10,0C849.1,504.6,849.1,491.7,849.1,478.6z"/>
		<path class="st4" d="M711,481.2c0-5.5,0-11.4,0-17.6c3.4,0,6.5,0,9.9,0c0,18,0,35.9,0,54c-3.1,0-6.2,0-9.6,0
			c-0.2-0.8-0.4-1.7-0.7-2.7c-0.5,0.2-1,0.2-1.3,0.5c-10.9,8-23.3,3.3-26.4-9.8c-1.6-6.9-1-13.6,2.2-19.9c3.3-6.5,9.3-9.8,16.5-8.6
			C704.8,477.7,707.8,479.7,711,481.2z M711,508.8c0-6.2-0.1-12,0-17.8c0.1-3.3-1.6-5.3-4.2-6.7c-3.9-2.2-8.7-0.8-11.4,3.1
			c-3.7,5.3-3.4,17.2,0.5,22.3c3,3.9,7.9,4.7,11.9,2C708.9,510.8,709.8,509.8,711,508.8z"/>
		<path class="st5" d="M799.1,499.2c-10.5,0-20.2,0-29.8,0c-0.3,5.7,2.2,10.2,6.6,12.3c6.5,3.1,12.2,1.5,19.2-5.5
			c0.6,0.3,1.3,0.6,1.8,0.9c0.1,0.6,0.2,0.9,0.1,1.2c-2.6,7-7.7,10.5-15,11.2c-8.1,0.7-15.4-0.9-20.4-7.8
			c-5.2-7.3-5.6-15.5-2.1-23.7c1.7-3.9,4.6-6.9,8.5-8.7c5.5-2.7,11.3-2.9,17-1.5c6.7,1.6,10.9,6.2,12.7,12.8
			C798.5,493,798.6,495.8,799.1,499.2z M787.2,492.8c-0.7-6.6-3.1-9.3-8-9.7c-5.2-0.3-8.4,2.7-10.1,9.7
			C775,492.8,780.8,492.8,787.2,492.8z"/>
		<path class="st5" d="M612,476.7c12.7,0.1,21.4,9.8,20.4,22.6c-0.1,1.8-0.4,3.6-0.9,5.4c-2.8,10.4-10.8,15.3-21.3,14.7
			c-12.4-0.7-18.7-9.8-18.6-21.6c0.1-10.7,5.6-17.8,15-20.3C608.4,477.1,610.2,477,612,476.7z M621.8,498.8
			c-0.7-3.5-0.9-6.6-1.9-9.6c-1.1-3.6-3.8-5.9-7.7-6c-3.9-0.1-6.7,2.2-8,5.6c-2.3,6.3-2.3,12.7,0.2,18.9c1.2,3.1,3.6,5.1,7.2,5.3
			c3.8,0.1,6.5-1.6,7.8-4.9C620.6,505.1,621,501.8,621.8,498.8z"/>
		<path class="st5" d="M829.9,493.5c-0.3-4.5-1.3-8-5.5-9.6c-6.3-2.4-11.3-0.3-15.6,4.6c-0.9-0.4-1.6-0.7-2.5-1.1
			c2.5-6.3,6.9-9.8,13.5-10.4c2.3-0.2,4.7-0.2,7,0.1c7.6,0.8,12.7,5.8,13,13.4c0.4,9,0.1,17.9,0.1,27.2c-3.3,0-6.3,0-9.6,0
			c-0.2-1.1-0.4-2.2-0.6-3.5c-0.6,0.4-1.2,0.7-1.7,1.1c-3.4,2.7-7.3,3.9-11.6,3.7c-5.8-0.2-10.4-3.7-11.9-8.9
			c-1.6-5.3,0.5-11.5,5-14.6c4.5-3.1,9.5-3.9,14.8-3C826,492.7,827.7,493.1,829.9,493.5z M829.8,499.9c-3.2-1.5-6.3-2.2-9.7-1
			c-4.1,1.4-6.1,4.8-5,8.9c0.9,3.3,4.4,5.5,8.2,4.7c2.3-0.5,4.5-1.7,6.5-2.4C829.8,506.2,829.8,503.1,829.8,499.9z"/>
		<path class="st5" d="M472.1,481.5c-1.7,3.6-2.8,6-3.9,8.4c-1.1,2.4-2.2,4.8-3.3,7.3c-2.7-0.8-5.1-1.4-7.9-2.3
			c0.6-1.4,1.1-2.5,1.7-3.6c4-8.4,8.1-16.7,11.9-25.2c1-2.2,2.2-3.2,5.3-2.3c8,17.4,16.2,35.3,24.7,53.7c-4,0.6-7.6,0.1-11.6,0.4
			C483.5,506.2,478.1,494.4,472.1,481.5z"/>
		<path class="st6" d="M945.4,488.4c-1.8-0.8-3-0.9-3.5-1.6c-3-3.7-7-4.3-11.3-3.8c-1.6,0.2-3.3,0.9-4.5,1.9c-2.2,1.7-2,4.8,0.3,6.4
			c1.2,0.8,2.7,1.3,4.1,1.7c2.5,0.8,5.2,1.3,7.7,2c9.9,3,10,15.5,3.8,20.5c-6.1,5-18.7,5.3-24.8,0.3c-2.5-2.1-4.2-4.6-4.2-8
			c1.4-1.2,2.3-1,3.3,0.5c3.2,4.8,8,5.4,13.2,5.1c0.8-0.1,1.7-0.2,2.4-0.6c2.1-0.9,3.7-2.4,3.7-4.8c0.1-2.2-1.3-3.8-3.2-4.7
			c-1.3-0.6-2.8-1-4.2-1.4c-2.4-0.7-4.9-1.1-7.2-2c-7.6-3-9.6-11.2-4.4-17.5c0.9-1.1,2.1-2.2,3.4-2.9c6.2-3.5,12.7-3.6,19.1-0.5
			C942.6,480.5,944.7,483.2,945.4,488.4z"/>
		<path class="st5" d="M569.5,478.2c0.1-7.2,0.8-13.9,8.8-15.7c4.6-1.1,9.6-1.4,13.4,3.5c-1.1,0.5-1.9,1.3-2.7,1.3
			c-7.5,0-9,1.4-9.1,8.8c0,0.6,0.1,1.3,0.2,2.4c1.5,0,3,0,4.4,0c1.3,0,2.6,0,4.2,0c0,2.2,0,4.1,0,6.2c-2.8,0-5.4,0-8.7,0
			c0,3.8,0,7.4,0,11c0,3.7,0,7.3,0,11c0,3.6,0,7.2,0,11.1c-3.5,0-6.5,0-10.2,0c-0.6-10.7,0.1-21.4-0.3-32.4
			c-1.8-0.2-3.6-0.5-5.6-0.7c0-1.9,0-3.8,0-5.9C565.7,478.5,567.3,478.3,569.5,478.2z"/>
		<path class="st7" d="M537.5,517.8c-3.6,0-6.7,0-10.1,0c0-18,0-35.9,0-54c3.3,0,6.6,0,10.1,0C537.5,481.6,537.5,499.5,537.5,517.8z
			"/>
		<path class="st8" d="M730.3,517.6c0-13.1,0-25.9,0-38.9c3.3,0,6.6,0,10.1,0c0.2,0.9,0.5,2,0.7,3.1c2.1-1.2,4-2.8,6.3-3.6
			c2.3-0.8,4.8-0.8,7.6-1.2c0,3.4,0,6.1,0,9.2c-4.8-1.5-9.5-2.3-14.2,1.4c0,9.7,0,19.8,0,30.1C737.3,517.6,734,517.6,730.3,517.6z"
			/>
		<path class="st5" d="M665,486.4c-5.7-2-10.3-2.4-15,1.2c0,9.8,0,19.8,0,30.1c-3.5,0-6.6,0-10.1,0c0-12.9,0-25.7,0-38.9
			c3.2,0,6.4,0,9.8,0c0.2,1,0.4,2.1,0.6,3.2c2.2-1.3,4.2-3,6.4-3.8c2.3-0.8,4.8-0.8,7.3-1.2C665.4,480.2,664.4,482.9,665,486.4z"/>
		<path class="st9" d="M516.7,517.8c-3.3,0-6.2,0-9.2,0c-1-3.6-1.3-45.5-0.4-54.1c1.5,0,3.1,0,4.7,0c1.5,0,3,0,4.8,0
			C516.7,481.6,516.7,499.5,516.7,517.8z"/>
		<path class="st10" d="M477.9,507.7c-5.6-0.6-11-1.2-16.7-1.9c-1.9,4-3.7,7.9-5.5,11.9c-3,0-6,0-9.5,0c1.9-4.2,3.7-8.2,5.6-12.5
			c-16.3-0.9-31.8,0.2-47.8,1.9C418.7,495.6,464.5,496.1,477.9,507.7z"/>
	</g>
</g>
</svg>
